<svg width="78" height="48" viewBox="0 0 78 48" fill="none" xmlns="http://www.w3.org/2000/svg">
<path d="M30.9023 40.1362L41.2495 48.0002V33.212V21.9601V7.17188H30.9023V10.4856V25.2738V25.348V40.1362Z" fill="#3870AB"/>
<path d="M15.6875 40.1363L26.0592 41.7189V33.212V21.9601V7.17188H15.6875V10.4856V25.2738V25.348V40.1363Z" fill="#3870AB"/>
<path d="M10.8471 7.86397L0.5 0V14.7882V26.0401V40.8283H10.8471V37.5146V22.7264V22.6522V7.86397Z" fill="#3870AB"/>
<path d="M29.0576 41.9666L15.6875 33.6328V44.2417L21.9302 48.0006L29.0576 41.9666Z" fill="#14517E"/>
<path d="M13.8456 41.9666L0.5 33.6328V44.2417L6.7181 48.0006L13.8456 41.9666Z" fill="#14517E"/>
<path d="M27.8789 6.03399L41.2491 14.3678V3.75888L35.031 0L27.8789 6.03399Z" fill="#14517E"/>
<path d="M12.6914 6.03399L26.0616 14.3678V3.75888L19.8189 0L12.6914 6.03399Z" fill="#14517E"/>
<path d="M58.5502 13.1561L48.2031 9.64453V24.4328V28.8099H58.5502V13.1561Z" fill="#3870AB"/>
<path d="M48.2031 20.2775V9.64386L63.5395 0.0488281L70.6915 6.03336L48.2031 20.2775Z" fill="#14517E"/>
<path d="M67.1289 34.8679L77.5006 38.3548V23.5913V19.1895H67.1289V34.8679Z" fill="#3870AB"/>
<path d="M77.5012 27.7227V38.3563L62.1649 47.9761L54.9883 41.9668L77.5012 27.7227Z" fill="#14517E"/>
</svg>
