<svg width="94" height="95" viewBox="0 0 94 95" fill="none" xmlns="http://www.w3.org/2000/svg">
<circle cx="47" cy="47.8145" r="47" fill="#F4F4F4"/>
<path d="M67.3786 26.375H20.2236C18.5915 26.375 17.2695 27.6982 17.2695 29.3318V33.8927C19.4925 33.8927 21.2908 35.6963 21.2908 37.9176C21.2908 40.1389 19.4888 41.9426 17.2695 41.9426V49.5231C19.4925 49.5231 21.2908 51.3267 21.2908 53.548C21.2908 55.7693 19.4888 57.5729 17.2695 57.5729V62.1338C17.2695 63.7674 18.5915 65.0906 20.2236 65.0906H77.6996C79.3317 65.0906 80.6537 63.7674 80.6537 62.1338V39.6584L67.3786 26.375Z" fill="white"/>
<path d="M67.3732 26.3744L80.6482 39.6615V62.1369C80.6482 63.7706 79.3262 65.0937 77.6941 65.0937H20.2182C18.586 65.0937 17.264 63.7706 17.264 62.1369V57.5761C19.487 57.5761 21.2853 55.7724 21.2853 53.5511C21.2853 51.3298 19.4833 49.5262 17.264 49.5262V41.9457C19.487 41.9457 21.2853 40.142 21.2853 37.9207C21.2853 35.6994 19.4833 33.8958 17.264 33.8958V29.3349C17.264 27.7013 18.586 26.3781 20.2182 26.3781H67.3768M67.3732 25.2656H20.2182C17.9767 25.2656 16.1562 27.0878 16.1562 29.3312V33.8921C16.1562 34.5056 16.6511 35.0009 17.264 35.0009C18.8703 35.0009 20.1775 36.3093 20.1775 37.917C20.1775 39.5248 18.8703 40.8332 17.264 40.8332C16.6511 40.8332 16.1562 41.3284 16.1562 41.942V49.5225C16.1562 50.136 16.6511 50.6313 17.264 50.6313C18.8703 50.6313 20.1775 51.9397 20.1775 53.5474C20.1775 55.1552 18.8703 56.4636 17.264 56.4636C16.6511 56.4636 16.1562 56.9588 16.1562 57.5724V62.1332C16.1562 64.373 17.9767 66.1988 20.2182 66.1988H77.6941C79.9355 66.1988 81.756 64.3767 81.756 62.1332V39.6579C81.756 39.3622 81.6378 39.0813 81.431 38.8743L68.156 25.5909C67.9492 25.3839 67.6686 25.2656 67.3732 25.2656Z" fill="#515151"/>
<path d="M67.375 36.7053C67.375 38.339 68.697 39.6621 70.3291 39.6621H80.65L67.375 26.375V36.7053Z" fill="#99CBFF"/>
<path d="M67.3773 26.3744L80.6524 39.6615H70.3314C68.6993 39.6615 67.3773 38.3384 67.3773 36.7047V26.3744ZM67.3773 25.2656C67.2333 25.2656 67.0893 25.2915 66.9527 25.3506C66.5391 25.5206 66.2695 25.9272 66.2695 26.3744V36.7047C66.2695 38.9482 68.09 40.7703 70.3314 40.7703H80.6524C81.0992 40.7703 81.5054 40.5005 81.6752 40.0866C81.8451 39.6726 81.7528 39.1959 81.4352 38.878L68.1602 25.5909C67.9497 25.3802 67.6653 25.2656 67.3773 25.2656Z" fill="#515151"/>
<path d="M34.9715 58.4293C34.9715 64.4057 30.1305 69.2512 24.1595 69.2512C18.1885 69.2512 13.3438 64.4057 13.3438 58.4293C13.3438 52.4529 18.1848 47.6074 24.1558 47.6074C30.1268 47.6074 34.9678 52.4529 34.9678 58.4293H34.9715Z" fill="#99CBFF"/>
<path d="M24.1581 47.6032C30.1291 47.6032 34.9702 52.4486 34.9702 58.425C34.9702 64.4015 30.1291 69.2469 24.1581 69.2469C18.1871 69.2469 13.3461 64.4052 13.3461 58.4287C13.3461 52.4523 18.1871 47.6068 24.1581 47.6068M24.1581 46.498C17.5852 46.4944 12.2383 51.8499 12.2383 58.4287C12.2383 65.0076 17.5852 70.3594 24.1581 70.3594C30.731 70.3594 36.078 65.0076 36.078 58.4287C36.078 51.8499 30.731 46.498 24.1581 46.498Z" fill="#515151"/>
<path d="M24.1945 65.8611C23.888 65.8611 23.6406 65.6135 23.6406 65.3067V51.4763C23.6406 51.1695 23.888 50.9219 24.1945 50.9219C24.501 50.9219 24.7484 51.1695 24.7484 51.4763V65.3067C24.7484 65.6135 24.501 65.8611 24.1945 65.8611Z" fill="#515151"/>
<path d="M24.1557 65.9344C24.0412 65.9344 23.923 65.8975 23.8233 65.8235C23.5796 65.6387 23.5279 65.2913 23.7125 65.0474L29.2183 57.7145C29.4029 57.4706 29.75 57.4225 29.9937 57.6036C30.2374 57.7884 30.2891 58.1359 30.1045 58.3798L24.5988 65.7127C24.4917 65.8568 24.3218 65.9344 24.1557 65.9344Z" fill="#515151"/>
<path d="M24.1575 65.9321C23.9876 65.9321 23.8214 65.8545 23.7144 65.7103L18.2086 58.3775C18.024 58.1335 18.0757 57.7861 18.3194 57.6013C18.5631 57.4165 18.9102 57.4683 19.0949 57.7122L24.6006 65.0451C24.7852 65.289 24.7335 65.6364 24.4898 65.8212C24.3901 65.8951 24.272 65.9321 24.1575 65.9321Z" fill="#515151"/>
<path d="M32.4055 29.3767C32.099 29.3767 31.8516 29.1291 31.8516 28.8223V26.0134C31.8516 25.7066 32.099 25.459 32.4055 25.459C32.7119 25.459 32.9594 25.7066 32.9594 26.0134V28.8223C32.9594 29.1291 32.7119 29.3767 32.4055 29.3767Z" fill="#515151"/>
<path d="M32.4055 35.5349C32.099 35.5349 31.8516 35.2873 31.8516 34.9805V32.1716C31.8516 31.8648 32.099 31.6172 32.4055 31.6172C32.7119 31.6172 32.9594 31.8648 32.9594 32.1716V34.9805C32.9594 35.2873 32.7119 35.5349 32.4055 35.5349Z" fill="#515151"/>
<path d="M32.4055 41.7029C32.099 41.7029 31.8516 41.4553 31.8516 41.1485V38.3396C31.8516 38.0328 32.099 37.7852 32.4055 37.7852C32.7119 37.7852 32.9594 38.0328 32.9594 38.3396V41.1485C32.9594 41.4553 32.7119 41.7029 32.4055 41.7029Z" fill="#515151"/>
<path d="M32.4055 47.8631C32.099 47.8631 31.8516 47.6154 31.8516 47.3087V44.4997C31.8516 44.1929 32.099 43.9453 32.4055 43.9453C32.7119 43.9453 32.9594 44.1929 32.9594 44.4997V47.3087C32.9594 47.6154 32.7119 47.8631 32.4055 47.8631Z" fill="#515151"/>
<path d="M45.7394 54.7602C45.6064 54.7602 45.4698 54.7122 45.3627 54.6124C45.1375 54.4054 45.1227 54.0543 45.3295 53.8288L59.6089 38.2945C59.8157 38.0691 60.1665 38.0543 60.3918 38.2613C60.617 38.4682 60.6318 38.8194 60.425 39.0448L46.1456 54.5791C46.0385 54.6974 45.8871 54.7565 45.7394 54.7565V54.7602Z" fill="#515151"/>
<path d="M48.4922 43.9547C50.1706 43.9547 51.5312 42.5928 51.5312 40.9129C51.5312 39.233 50.1706 37.8711 48.4922 37.8711C46.8138 37.8711 45.4531 39.233 45.4531 40.9129C45.4531 42.5928 46.8138 43.9547 48.4922 43.9547Z" fill="#99CBFF"/>
<path d="M48.4953 44.5108C46.516 44.5108 44.9023 42.8993 44.9023 40.9146C44.9023 38.9298 46.5123 37.3184 48.4953 37.3184C50.4782 37.3184 52.0882 38.9298 52.0882 40.9146C52.0882 42.8993 50.4782 44.5108 48.4953 44.5108ZM48.4953 38.4272C47.1253 38.4272 46.0101 39.5434 46.0101 40.9146C46.0101 42.2858 47.1253 43.402 48.4953 43.402C49.8653 43.402 50.9804 42.2858 50.9804 40.9146C50.9804 39.5434 49.8653 38.4272 48.4953 38.4272Z" fill="#515151"/>
<path d="M57.2617 55.0699C58.9401 55.0699 60.3007 53.7081 60.3007 52.0281C60.3007 50.3482 58.9401 48.9863 57.2617 48.9863C55.5833 48.9863 54.2227 50.3482 54.2227 52.0281C54.2227 53.7081 55.5833 55.0699 57.2617 55.0699Z" fill="#99CBFF"/>
<path d="M57.2648 55.6202C55.2856 55.6202 53.6719 54.0087 53.6719 52.0239C53.6719 50.0392 55.2819 48.4277 57.2648 48.4277C59.2478 48.4277 60.8578 50.0392 60.8578 52.0239C60.8578 54.0087 59.2478 55.6202 57.2648 55.6202ZM57.2648 49.5365C55.8948 49.5365 54.7797 50.6527 54.7797 52.0239C54.7797 53.3952 55.8948 54.5114 57.2648 54.5114C58.6348 54.5114 59.75 53.3952 59.75 52.0239C59.75 50.6527 58.6348 49.5365 57.2648 49.5365Z" fill="#515151"/>
</svg>
