<svg width="48" height="48" viewBox="0 0 48 48" fill="none" xmlns="http://www.w3.org/2000/svg">
<circle cx="24" cy="24" r="24" fill="#3870AA"/>
<path d="M32.7029 15.2983C30.6835 13.2656 28.0181 12.0013 25.1664 11.7232C22.3147 11.4451 19.4553 12.1706 17.0812 13.7747C14.7071 15.3789 12.9671 17.761 12.1611 20.5106C11.3551 23.2601 11.5336 26.2047 12.666 28.8367C12.784 29.0814 12.8227 29.3567 12.7767 29.6244L11.6937 34.8306C11.6519 35.0302 11.6604 35.237 11.7185 35.4325C11.7765 35.628 11.8821 35.806 12.026 35.9506C12.1439 36.0676 12.2843 36.1596 12.4387 36.2209C12.5931 36.2823 12.7583 36.3117 12.9244 36.3075H13.1706L18.4383 35.249C18.706 35.2168 18.9775 35.255 19.226 35.3598C21.858 36.4921 24.8026 36.6707 27.5521 35.8647C30.3016 35.0587 32.6838 33.3187 34.288 30.9446C35.8921 28.5704 36.6176 25.7111 36.3395 22.8593C36.0614 20.0076 34.797 17.3423 32.7644 15.3229L32.7029 15.2983ZM19.0783 25.2306C18.8348 25.2306 18.5969 25.1584 18.3945 25.0231C18.1921 24.8879 18.0343 24.6957 17.9412 24.4708C17.848 24.2459 17.8237 23.9984 17.8712 23.7597C17.9186 23.5209 18.0359 23.3016 18.208 23.1295C18.3801 22.9574 18.5994 22.8402 18.8382 22.7927C19.0769 22.7452 19.3244 22.7696 19.5493 22.8627C19.7742 22.9559 19.9664 23.1136 20.1016 23.316C20.2369 23.5184 20.309 23.7564 20.309 23.9998C20.309 24.3262 20.1794 24.6393 19.9486 24.8701C19.7177 25.1009 19.4047 25.2306 19.0783 25.2306ZM24.0013 25.2306C23.7579 25.2306 23.52 25.1584 23.3176 25.0231C23.1152 24.8879 22.9574 24.6957 22.8643 24.4708C22.7711 24.2459 22.7467 23.9984 22.7942 23.7597C22.8417 23.5209 22.9589 23.3016 23.1311 23.1295C23.3032 22.9574 23.5225 22.8402 23.7612 22.7927C24 22.7452 24.2474 22.7696 24.4723 22.8627C24.6972 22.9559 24.8895 23.1136 25.0247 23.316C25.1599 23.5184 25.2321 23.7564 25.2321 23.9998C25.2321 24.3262 25.1024 24.6393 24.8716 24.8701C24.6408 25.1009 24.3278 25.2306 24.0013 25.2306ZM28.9244 25.2306C28.681 25.2306 28.443 25.1584 28.2406 25.0231C28.0382 24.8879 27.8805 24.6957 27.7873 24.4708C27.6942 24.2459 27.6698 23.9984 27.7173 23.7597C27.7648 23.5209 27.882 23.3016 28.0541 23.1295C28.2263 22.9574 28.4456 22.8402 28.6843 22.7927C28.9231 22.7452 29.1705 22.7696 29.3954 22.8627C29.6203 22.9559 29.8125 23.1136 29.9478 23.316C30.083 23.5184 30.1552 23.7564 30.1552 23.9998C30.1552 24.3262 30.0255 24.6393 29.7947 24.8701C29.5639 25.1009 29.2508 25.2306 28.9244 25.2306Z" fill="white"/>
</svg>
