<svg width="62" height="63" viewBox="0 0 62 63" fill="none" xmlns="http://www.w3.org/2000/svg">
<circle cx="31" cy="31.8145" r="31" fill="#3870AA"/>
<path fill-rule="evenodd" clip-rule="evenodd" d="M18.2684 27.779C18.25 28.544 18.25 29.4096 18.25 30.3984V33.2318C18.25 37.2381 18.25 39.2427 19.4952 40.4865C20.7391 41.7318 22.7437 41.7318 26.75 41.7318H35.25C39.2563 41.7318 41.2609 41.7318 42.5047 40.4865C43.75 39.2427 43.75 37.2381 43.75 33.2318V30.3984C43.75 29.4096 43.75 28.5426 43.7316 27.779L32.3756 34.0874C31.9548 34.3211 31.4814 34.4438 31 34.4438C30.5186 34.4438 30.0452 34.3211 29.6244 34.0874L18.2684 27.779ZM18.5943 24.7743C18.7147 24.8037 18.8305 24.8495 18.9385 24.9103L31 31.6111L43.0615 24.9103C43.1698 24.8501 43.2855 24.8044 43.4057 24.7743C43.2216 24.1028 42.9382 23.5772 42.5047 23.1437C41.2609 21.8984 39.2563 21.8984 35.25 21.8984H26.75C22.7437 21.8984 20.7391 21.8984 19.4952 23.1437C19.0603 23.5772 18.7784 24.1028 18.5943 24.7729" fill="white"/>
</svg>
