<svg width="94" height="95" viewBox="0 0 94 95" fill="none" xmlns="http://www.w3.org/2000/svg">
<circle cx="47" cy="47.8145" r="47" fill="#F4F4F4"/>
<path d="M33.929 77.2919C33.8029 77.2919 33.6797 77.241 33.5897 77.1393C33.4245 76.9539 33.4425 76.6697 33.6287 76.5052L38.5894 72.1439C38.7755 71.9794 39.0608 71.9973 39.226 72.1828C39.3911 72.3683 39.3731 72.6524 39.1869 72.817L34.2263 77.1782C34.1392 77.253 34.0341 77.2919 33.929 77.2919Z" fill="#515151"/>
<path d="M62.9252 82.5805C62.76 82.5805 62.6009 82.4877 62.5228 82.3322L60.0124 77.3068C59.9013 77.0855 59.9914 76.8163 60.2136 76.7056C60.4358 76.5949 60.7061 76.6847 60.8172 76.906L63.3275 81.9314C63.4386 82.1527 63.3486 82.4219 63.1264 82.5326C63.0633 82.5655 62.9942 82.5805 62.9252 82.5805Z" fill="#515151"/>
<path d="M37.9832 62.5714L32.5961 54.3275L23.3684 57.8422L23.8789 48.0129L14.3359 45.4613L20.5518 37.8097L14.3359 30.155L23.8789 27.6034L23.3684 17.7741L32.5961 21.2889L37.9832 13.0449L43.3732 21.2889L52.5979 17.7741L52.0874 27.6034L61.6304 30.155L55.4146 37.8097L61.6304 45.4613L52.0874 48.0129L52.5979 57.8422L43.3732 54.3275L37.9832 62.5714Z" fill="#99CBFF"/>
<path d="M69.1509 43.6871C69.1118 43.6871 69.0728 43.6811 69.0308 43.6721C68.7905 43.6063 68.6494 43.361 68.7155 43.1217C68.9797 42.1525 68.6374 40.1903 67.4663 38.3118C66.1511 36.1999 63.3704 33.4509 57.605 32.3292C51.8666 31.2135 48.2422 32.742 46.2123 34.2197C44.1944 35.6884 43.3266 37.3994 43.2335 38.1891C43.2035 38.4344 42.9813 38.6109 42.735 38.584C42.4888 38.554 42.3116 38.3327 42.3387 38.0874C42.4738 36.9148 43.5608 35.0423 45.6808 33.4988C47.8579 31.9134 51.7225 30.2712 57.7792 31.4498C63.8629 32.6343 66.8237 35.5777 68.232 37.8391C69.6073 40.0437 69.9016 42.2004 69.5863 43.358C69.5322 43.5584 69.3491 43.6901 69.1509 43.6901V43.6871Z" fill="#515151"/>
<path d="M69.8272 65.1894C67.9084 74.9798 58.3865 81.3662 48.5582 79.4547C38.733 77.5433 32.3189 68.058 34.2377 58.2676C36.1565 48.4771 45.6785 42.0908 55.5067 44.0022C65.335 45.9136 71.746 55.3989 69.8272 65.1894Z" fill="white"/>
<path d="M52.0068 43.663C53.1598 43.663 54.3279 43.7737 55.502 44.001C65.3303 45.9124 71.7413 55.3978 69.8225 65.1882C68.1319 73.809 60.5468 79.7916 52.0488 79.7916C50.8957 79.7916 49.7276 79.6809 48.5535 79.4536C38.7283 77.5421 32.3142 68.0568 34.233 58.2664C35.9236 49.6455 43.5088 43.663 52.0068 43.663ZM52.0068 42.7656C42.9352 42.7656 35.0888 49.2118 33.3472 58.0929C31.3353 68.353 38.0797 78.3289 48.3793 80.333C49.5895 80.5693 50.8236 80.689 52.0458 80.689C61.1173 80.689 68.9637 74.2428 70.7053 65.3617C71.6782 60.3902 70.6513 55.3409 67.8136 51.1412C64.9729 46.9414 60.6639 44.0938 55.6732 43.1216C54.4631 42.8853 53.2289 42.7656 52.0068 42.7656Z" fill="#515151"/>
<path d="M76.5431 42.4598C73.231 38.631 67.4296 38.2003 63.5859 41.4996L75.5792 55.3672C79.4228 52.0678 79.8552 46.2887 76.5431 42.4598Z" fill="#99CBFF"/>
<path d="M69.5794 39.2823C72.1618 39.2823 74.7262 40.3591 76.5429 42.462C79.855 46.2908 79.4226 52.07 75.579 55.3693L63.5857 41.5018C65.3214 40.0121 67.4534 39.2823 69.5794 39.2823ZM69.5794 38.3849C67.1651 38.3849 64.8289 39.2494 62.9972 40.8198C62.6188 41.1428 62.5768 41.7112 62.9041 42.0851L74.8974 55.9526C75.0535 56.1321 75.2757 56.2428 75.513 56.2607C75.534 56.2607 75.558 56.2607 75.579 56.2607C75.7952 56.2607 76.0024 56.183 76.1676 56.0424C80.3805 52.4259 80.855 46.0665 77.2246 41.8697C75.3058 39.6532 72.5191 38.3789 69.5794 38.3789V38.3849Z" fill="#515151"/>
<path d="M36.594 34.6884C41.1102 32.3821 46.6474 34.156 48.9626 38.6548L32.6122 47.0095C30.2971 42.5106 32.0777 36.9947 36.594 34.6884Z" fill="#99CBFF"/>
<path d="M40.7787 33.6786C44.1148 33.6786 47.3338 35.4943 48.9614 38.6561L32.611 47.0107C30.2958 42.5119 32.0765 36.996 36.5927 34.6897C37.935 34.0047 39.3674 33.6786 40.7787 33.6786ZM40.7787 32.7812C39.1932 32.7812 37.6017 33.1641 36.1814 33.891C31.2327 36.4216 29.2719 42.4879 31.8092 47.4205C31.9173 47.6329 32.1065 47.7915 32.3347 47.8662C32.4248 47.8961 32.5179 47.9081 32.611 47.9081C32.7521 47.9081 32.8933 47.8752 33.0224 47.8094L49.3728 39.4548C49.8142 39.2274 49.9913 38.689 49.7631 38.2463C48.0275 34.8751 44.5863 32.7812 40.7787 32.7812Z" fill="#515151"/>
<path d="M60.9194 41.3436C60.8894 41.3436 60.8624 41.3436 60.8323 41.3346L51.4665 39.513C51.2233 39.4651 51.0641 39.2288 51.1092 38.9865C51.1572 38.7442 51.3975 38.5857 51.6377 38.6335L61.0035 40.4552C61.2467 40.5031 61.4059 40.7394 61.3608 40.9817C61.3188 41.197 61.1296 41.3436 60.9194 41.3436Z" fill="#515151"/>
<path d="M55.6286 43.8471C55.6016 43.8471 55.5746 43.8471 55.5505 43.8411C55.3043 43.7962 55.1422 43.5659 55.1872 43.3206L55.7968 39.9046C55.8388 39.6593 56.076 39.4978 56.3193 39.5426C56.5655 39.5875 56.7276 39.8178 56.6826 40.0631L56.073 43.4792C56.034 43.6975 55.8448 43.8501 55.6316 43.8501L55.6286 43.8471Z" fill="#515151"/>
<path d="M31.6796 32.8023C31.5444 32.8023 31.4123 32.7425 31.3222 32.6288L28.0011 28.3633C27.848 28.1688 27.884 27.8847 28.0822 27.7351C28.2774 27.5826 28.5626 27.6185 28.7128 27.8159L32.0339 32.0814C32.187 32.2759 32.151 32.56 31.9528 32.7096C31.8717 32.7724 31.7727 32.8023 31.6766 32.8023H31.6796Z" fill="#515151"/>
<path d="M36.1895 32.2608C36.1565 32.2608 36.1264 32.2578 36.0934 32.2518C35.8502 32.2009 35.697 31.9616 35.7481 31.7193L36.9312 26.2483C36.9822 26.006 37.2255 25.8534 37.4657 25.9043C37.7089 25.9552 37.8621 26.1945 37.811 26.4367L36.6279 31.9078C36.5829 32.1172 36.3967 32.2608 36.1895 32.2608Z" fill="#515151"/>
<path d="M30.0237 37.0978C30.0057 37.0978 29.9876 37.0978 29.9696 37.0948L24.8498 36.4846C24.6036 36.4547 24.4264 36.2333 24.4564 35.9851C24.4865 35.7368 24.7117 35.5633 24.9579 35.5932L30.0777 36.2034C30.324 36.2333 30.5011 36.4547 30.4711 36.703C30.4441 36.9303 30.2489 37.0978 30.0237 37.0978Z" fill="#515151"/>
<path d="M52.0302 62.1777C52.0001 62.1777 51.9731 62.1777 51.9431 62.1688C51.6999 62.1209 51.5407 61.8846 51.5857 61.6423L53.7838 50.422C53.8319 50.1797 54.0691 50.0212 54.3123 50.0691C54.5555 50.1169 54.7147 50.3532 54.6696 50.5955L52.4716 61.8158C52.4295 62.0312 52.2404 62.1777 52.0302 62.1777Z" fill="#515151"/>
<path d="M43.8927 67.3206C43.7426 67.3206 43.5984 67.2458 43.5113 67.1112C43.3792 66.9018 43.4393 66.6236 43.6495 66.492L51.7901 61.347C52.0003 61.2154 52.2796 61.2752 52.4117 61.4846C52.5438 61.694 52.4838 61.9722 52.2736 62.1038L44.1329 67.2488C44.0579 67.2967 43.9738 67.3176 43.8927 67.3176V67.3206Z" fill="#515151"/>
<path d="M53.6355 62.0418C53.4614 62.9242 52.6056 63.4986 51.7197 63.3251C50.8339 63.1516 50.2574 62.2991 50.4285 61.4167C50.6027 60.5342 51.4585 59.9569 52.3443 60.1304C53.2302 60.3039 53.8067 61.1594 53.6355 62.0388V62.0418Z" fill="#99CBFF"/>
<path d="M52.031 60.1005C52.1361 60.1005 52.2412 60.1095 52.3463 60.1304C53.2321 60.3039 53.8086 61.1594 53.6375 62.0388C53.4843 62.8166 52.8027 63.355 52.037 63.355C51.9319 63.355 51.8268 63.346 51.7217 63.3251C50.8358 63.1516 50.2593 62.2991 50.4305 61.4167C50.5836 60.6389 51.2652 60.1005 52.034 60.1005M52.034 59.2031C50.8238 59.2031 49.7788 60.0616 49.5476 61.2462C49.4185 61.9072 49.5536 62.5803 49.932 63.1396C50.3103 63.699 50.8839 64.0789 51.5475 64.2075C51.7097 64.2374 51.8718 64.2554 52.037 64.2554C53.2441 64.2554 54.2891 63.3969 54.5233 62.2153C54.6524 61.5543 54.5173 60.8812 54.1389 60.3219C53.7606 59.7625 53.1871 59.3826 52.5204 59.254C52.3613 59.2241 52.1961 59.2061 52.034 59.2061V59.2031Z" fill="#515151"/>
</svg>
