<svg width="62" height="63" viewBox="0 0 62 63" fill="none" xmlns="http://www.w3.org/2000/svg">
<circle cx="31" cy="31.8145" r="31" fill="#3870AA"/>
<path d="M24.817 19.0655L26.253 18.6069C27.597 18.1776 29.0343 18.8722 29.6103 20.2295L30.7569 22.9335C31.2569 24.1108 30.9796 25.4961 30.0716 26.3575L27.5476 28.7548C27.7036 30.1894 28.1849 31.6014 28.9929 32.9907C29.7607 34.3349 30.7903 35.5115 32.0209 36.4507L35.0555 35.4374C36.2049 35.0547 37.4568 35.496 38.1622 36.532L39.8048 38.9453C40.6261 40.1506 40.4781 41.812 39.4608 42.8333L38.3702 43.9279C37.2849 45.0173 35.7355 45.4133 34.3009 44.9653C30.9156 43.9093 27.8036 40.7746 24.9637 35.5614C22.1197 30.3401 21.117 25.9081 21.953 22.2708C22.305 20.7402 23.3957 19.5202 24.8197 19.0655" fill="white"/>
</svg>
