<svg width="62" height="63" viewBox="0 0 62 63" fill="none" xmlns="http://www.w3.org/2000/svg">
<circle cx="31" cy="31.8145" r="31" fill="#3870AA"/>
<path d="M39.4587 23.1276C37.5444 21.2008 35.0179 20.0023 32.3147 19.7387C29.6115 19.4751 26.9011 20.1628 24.6506 21.6834C22.4002 23.204 20.7508 25.4621 19.9867 28.0684C19.2227 30.6748 19.392 33.466 20.4653 35.9609C20.5772 36.1928 20.6139 36.4538 20.5703 36.7076L19.5437 41.6426C19.5041 41.8318 19.5122 42.0279 19.5672 42.2132C19.6222 42.3985 19.7223 42.5672 19.8587 42.7043C19.9704 42.8152 20.1035 42.9024 20.2499 42.9605C20.3963 43.0187 20.5529 43.0466 20.7103 43.0426H20.9437L25.937 42.0393C26.1908 42.0087 26.4481 42.0449 26.6837 42.1443C29.1786 43.2176 31.9698 43.3869 34.5762 42.6229C37.1825 41.8588 39.4406 40.2094 40.9612 37.959C42.4818 35.7085 43.1695 32.998 42.9059 30.2949C42.6423 27.5917 41.4438 25.0652 39.517 23.1509L39.4587 23.1276ZM26.5437 32.5426C26.3129 32.5426 26.0874 32.4742 25.8955 32.346C25.7037 32.2178 25.5541 32.0356 25.4658 31.8224C25.3775 31.6092 25.3544 31.3746 25.3994 31.1483C25.4444 30.922 25.5556 30.7141 25.7187 30.551C25.8819 30.3878 26.0898 30.2767 26.3161 30.2317C26.5424 30.1867 26.777 30.2098 26.9901 30.2981C27.2033 30.3864 27.3855 30.5359 27.5137 30.7278C27.6419 30.9196 27.7103 31.1452 27.7103 31.3759C27.7103 31.6853 27.5874 31.9821 27.3686 32.2009C27.1498 32.4197 26.8531 32.5426 26.5437 32.5426ZM31.2103 32.5426C30.9796 32.5426 30.754 32.4742 30.5622 32.346C30.3703 32.2178 30.2208 32.0356 30.1325 31.8224C30.0442 31.6092 30.0211 31.3746 30.0661 31.1483C30.1111 30.922 30.2222 30.7141 30.3854 30.551C30.5485 30.3878 30.7564 30.2767 30.9827 30.2317C31.209 30.1867 31.4436 30.2098 31.6568 30.2981C31.87 30.3864 32.0522 30.5359 32.1804 30.7278C32.3086 30.9196 32.377 31.1452 32.377 31.3759C32.377 31.6853 32.2541 31.9821 32.0353 32.2009C31.8165 32.4197 31.5198 32.5426 31.2103 32.5426ZM35.877 32.5426C35.6463 32.5426 35.4207 32.4742 35.2288 32.346C35.037 32.2178 34.8875 32.0356 34.7991 31.8224C34.7108 31.6092 34.6877 31.3746 34.7328 31.1483C34.7778 30.922 34.8889 30.7141 35.0521 30.551C35.2152 30.3878 35.4231 30.2767 35.6494 30.2317C35.8757 30.1867 36.1103 30.2098 36.3235 30.2981C36.5367 30.3864 36.7189 30.5359 36.8471 30.7278C36.9753 30.9196 37.0437 31.1452 37.0437 31.3759C37.0437 31.6853 36.9208 31.9821 36.702 32.2009C36.4832 32.4197 36.1864 32.5426 35.877 32.5426Z" fill="white"/>
</svg>
