<svg width="32" height="33" viewBox="0 0 32 33" fill="none" xmlns="http://www.w3.org/2000/svg">
<path d="M29.4336 24.7641C29.4336 27.4641 27.2447 29.653 24.5448 29.653H7.43869C4.73875 29.653 2.55469 27.4689 2.55469 24.7641V7.86057C2.55469 5.16062 4.74357 2.97656 7.43869 2.97656H24.5448C27.2447 2.97656 29.4336 5.16062 29.4336 7.86057V24.7641Z" fill="#868686"/>
<path d="M23.5892 5.16602H7.99216C6.00095 5.16602 4.39062 6.78598 4.39062 8.78201V17.3543C4.39062 19.3504 6.00095 20.9655 7.99216 20.9655H13.3679L15.2 23.9499C15.2 23.9499 15.2193 23.9885 15.2579 24.0367C15.364 24.2199 15.5616 24.3453 15.7931 24.3453C16.0245 24.3453 16.2173 24.2199 16.3234 24.0415C16.3716 23.9885 16.3861 23.9499 16.3861 23.9499L18.2182 20.9655H23.5892C25.5755 20.9655 27.1907 19.3504 27.1907 17.3543V8.78201C27.1907 6.78598 25.5755 5.16602 23.5892 5.16602Z" fill="white"/>
<path d="M9.45923 11.4485C9.45923 11.4485 8.83728 11.4485 8.26836 11.9981V9.78516H6.875V15.5997H8.28283V15.1465C8.28283 15.1465 8.6155 15.7491 9.45441 15.7491C9.45441 15.7491 11.4215 15.6768 11.4215 13.5747C11.4215 13.5747 11.3492 11.4485 9.45441 11.4485M9.15067 14.5149C8.65407 14.5149 8.2539 14.1147 8.2539 13.6181C8.2539 13.1215 8.65407 12.7213 9.15067 12.7213C9.64726 12.7213 10.0474 13.1215 10.0474 13.6181C10.0474 14.1147 9.64726 14.5149 9.15067 14.5149Z" fill="#868686"/>
<path d="M11.875 9.64844V10.9984C11.875 10.9984 12.5114 10.9695 12.5114 12.1555V15.598H13.8566V11.8373C13.8566 11.8373 13.9144 9.64844 11.875 9.64844Z" fill="#868686"/>
<path d="M17.1456 11.4668C17.1456 11.4668 14.8362 11.4668 14.8362 13.6171C14.8362 13.6171 14.7639 15.7433 17.1456 15.7433C17.1456 15.7433 19.5032 15.7433 19.5032 13.6171C19.5032 13.6171 19.5804 11.4668 17.1456 11.4668ZM17.1456 14.5139C16.649 14.5139 16.2488 14.1137 16.2488 13.6171C16.2488 13.1205 16.649 12.7203 17.1456 12.7203C17.6422 12.7203 18.0424 13.1205 18.0424 13.6171C18.0424 14.1137 17.6422 14.5139 17.1456 14.5139Z" fill="#868686"/>
<path d="M23.3545 11.6022V11.9976C23.3545 11.9976 22.9543 11.4673 22.1829 11.4673C22.1829 11.4673 20.2109 11.3805 20.2109 13.6031C20.2109 13.6031 20.1917 15.6763 22.1298 15.6763C22.1298 15.6763 22.9205 15.7052 23.3545 15.1459V15.469C23.3545 15.469 23.4557 16.4911 22.4673 16.4911H22.1298V17.7253H22.6746C22.6746 17.7253 24.7141 17.7494 24.7141 15.5461V11.6022H23.3545ZM22.5204 14.5143C22.0238 14.5143 21.6236 14.1142 21.6236 13.6176C21.6236 13.121 22.0238 12.7208 22.5204 12.7208C23.017 12.7208 23.4171 13.121 23.4171 13.6176C23.4171 14.1142 23.017 14.5143 22.5204 14.5143Z" fill="#868686"/>
</svg>
