<svg width="32" height="33" viewBox="0 0 32 33" fill="none" xmlns="http://www.w3.org/2000/svg">
<path d="M10.3974 2.98047H21.5974C25.8641 2.98047 29.3307 6.44714 29.3307 10.7138V21.9138C29.3307 23.9648 28.516 25.9318 27.0657 27.3821C25.6154 28.8324 23.6484 29.6471 21.5974 29.6471H10.3974C6.13073 29.6471 2.66406 26.1805 2.66406 21.9138V10.7138C2.66406 8.66279 3.47882 6.69579 4.9291 5.24551C6.37938 3.79523 8.34639 2.98047 10.3974 2.98047ZM10.1307 5.64714C8.85769 5.64714 7.63679 6.15285 6.73662 7.05302C5.83644 7.9532 5.33073 9.1741 5.33073 10.4471V22.1805C5.33073 24.8338 7.4774 26.9805 10.1307 26.9805H21.8641C23.1371 26.9805 24.358 26.4748 25.2582 25.5746C26.1583 24.6744 26.6641 23.4535 26.6641 22.1805V10.4471C26.6641 7.7938 24.5174 5.64714 21.8641 5.64714H10.1307ZM22.9974 7.64714C23.4394 7.64714 23.8633 7.82273 24.1759 8.13529C24.4885 8.44785 24.6641 8.87177 24.6641 9.3138C24.6641 9.75583 24.4885 10.1798 24.1759 10.4923C23.8633 10.8049 23.4394 10.9805 22.9974 10.9805C22.5554 10.9805 22.1314 10.8049 21.8189 10.4923C21.5063 10.1798 21.3307 9.75583 21.3307 9.3138C21.3307 8.87177 21.5063 8.44785 21.8189 8.13529C22.1314 7.82273 22.5554 7.64714 22.9974 7.64714ZM15.9974 9.64713C17.7655 9.64714 19.4612 10.3495 20.7114 11.5998C21.9617 12.85 22.6641 14.5457 22.6641 16.3138C22.6641 18.0819 21.9617 19.7776 20.7114 21.0278C19.4612 22.2781 17.7655 22.9805 15.9974 22.9805C14.2293 22.9805 12.5336 22.2781 11.2833 21.0278C10.0331 19.7776 9.33073 18.0819 9.33073 16.3138C9.33073 14.5457 10.0331 12.85 11.2833 11.5998C12.5336 10.3495 14.2293 9.64714 15.9974 9.64713ZM15.9974 12.3138C14.9365 12.3138 13.9191 12.7352 13.169 13.4854C12.4188 14.2355 11.9974 15.2529 11.9974 16.3138C11.9974 17.3747 12.4188 18.3921 13.169 19.1422C13.9191 19.8924 14.9365 20.3138 15.9974 20.3138C17.0583 20.3138 18.0757 19.8924 18.8258 19.1422C19.576 18.3921 19.9974 17.3747 19.9974 16.3138C19.9974 15.2529 19.576 14.2355 18.8258 13.4854C18.0757 12.7352 17.0583 12.3138 15.9974 12.3138Z" fill="#868686"/>
</svg>
