<svg width="48" height="48" viewBox="0 0 48 48" fill="none" xmlns="http://www.w3.org/2000/svg">
<circle cx="24" cy="24" r="24" fill="#3870AA"/>
<path d="M18.3833 12.1791L19.7409 11.7455C21.0114 11.3396 22.3703 11.9963 22.9148 13.2795L23.9988 15.8358C24.4715 16.9488 24.2093 18.2585 23.3509 19.0728L20.9648 21.3392C21.1123 22.6955 21.5673 24.0303 22.3312 25.3438C23.057 26.6146 24.0304 27.7269 25.1938 28.6148L28.0627 27.6568C29.1492 27.295 30.3329 27.7123 30.9997 28.6917L32.5526 30.9732C33.3291 32.1127 33.1891 33.6833 32.2274 34.6488L31.1963 35.6837C30.1702 36.7135 28.7055 37.0879 27.3492 36.6644C24.1488 35.666 21.2068 32.7026 18.5219 27.774C15.8333 22.8379 14.8854 18.648 15.6757 15.2093C16.0085 13.7623 17.0396 12.6089 18.3858 12.1791" fill="white"/>
</svg>
