<svg width="94" height="95" viewBox="0 0 94 95" fill="none" xmlns="http://www.w3.org/2000/svg">
<circle cx="47" cy="47.8145" r="47" fill="#F4F4F4"/>
<path d="M52.0117 52.7566H51.197V33.1246C51.197 33.1246 51.197 33.0993 51.197 33.0867C51.197 33.0266 51.1906 32.9633 51.1875 32.9001C51.1843 32.8463 51.1812 32.7926 51.1748 32.742C51.1685 32.7009 51.1622 32.6566 51.1559 32.6123C51.1433 32.5396 51.1338 32.4668 51.118 32.3973C51.1117 32.3751 51.1054 32.3498 51.0991 32.3277C51.077 32.2392 51.0517 32.1506 51.0233 32.0621C51.0233 32.0589 51.0233 32.0526 51.0201 32.0494C51.017 32.0399 51.0106 32.0304 51.0075 32.0178C50.9759 31.9261 50.9412 31.8375 50.9001 31.749C50.8906 31.73 50.8812 31.711 50.8717 31.6921C50.8338 31.613 50.7959 31.5339 50.7517 31.458C50.7391 31.4327 50.7233 31.4106 50.7075 31.3853C50.6664 31.3189 50.6254 31.2525 50.578 31.1892C50.5591 31.1608 50.5401 31.1355 50.518 31.1102C50.4738 31.0501 50.4264 30.9932 50.3759 30.9363C50.3538 30.911 50.3317 30.8888 50.3096 30.8635C50.2591 30.8066 50.2054 30.7528 50.1485 30.6991C50.1296 30.6801 50.1075 30.6611 50.0854 30.6422C50.0254 30.5884 49.9622 30.5346 49.8959 30.484C49.8801 30.4714 49.8643 30.4587 49.8486 30.4461C49.7759 30.3923 49.7033 30.3417 49.6275 30.2943C49.618 30.288 49.6054 30.2816 49.5959 30.2753C49.5138 30.2247 49.4286 30.1773 49.3433 30.1362C49.337 30.133 49.3307 30.1299 49.3212 30.1267C49.2328 30.0824 49.1412 30.0445 49.0496 30.0065C49.0433 30.0065 49.0338 30.0002 49.0275 29.997C48.9359 29.9622 48.8444 29.9338 48.7528 29.9085C48.7402 29.9053 48.7244 29.9022 48.7117 29.8958C48.6265 29.8737 48.5412 29.8547 48.4496 29.8389C48.4244 29.8326 48.3959 29.8294 48.3707 29.8263C48.2949 29.8136 48.2191 29.8041 48.1402 29.7978C48.0991 29.7978 48.0581 29.7946 48.017 29.7915C47.9665 29.7915 47.9191 29.7852 47.8686 29.7852C47.8496 29.7852 47.8339 29.7852 47.8149 29.7852C47.7707 29.7852 47.7265 29.7883 47.6823 29.7915C47.6128 29.7946 47.5465 29.7978 47.4802 29.8073C47.4454 29.8105 47.4075 29.8199 47.3728 29.8231C47.297 29.8358 47.2212 29.8452 47.1454 29.8642C47.117 29.8705 47.0918 29.88 47.0633 29.8864C46.9812 29.9053 46.9023 29.9275 46.8233 29.9559C46.8139 29.9559 46.8076 29.9591 46.7981 29.9622L42.115 31.7047C40.375 32.2961 39.4466 34.1903 40.0371 35.9328C40.6277 37.6753 42.5192 38.605 44.2592 38.0136L44.5434 37.8524V52.7503H43.7287C41.8908 52.7503 40.4003 54.2397 40.4003 56.0834C40.4003 57.9271 41.8908 59.4165 43.7287 59.4165H52.0148C53.8527 59.4165 55.3432 57.9239 55.3432 56.0834C55.3432 54.2429 53.8527 52.7503 52.0148 52.7503L52.0117 52.7566Z" fill="white"/>
<path d="M47.8655 30.0114C47.9156 30.0114 47.9626 30.0177 48.0128 30.0177C48.0535 30.0177 48.0942 30.0177 48.135 30.024C48.2133 30.0303 48.2886 30.0397 48.3638 30.0523C48.3888 30.0554 48.417 30.0585 48.4421 30.0648C48.5299 30.0805 48.6145 30.0993 48.7022 30.1213C48.7148 30.1244 48.7305 30.1276 48.743 30.1339C48.837 30.159 48.9279 30.1903 49.0156 30.2217C49.0219 30.2217 49.0313 30.228 49.0376 30.2311C49.1285 30.2657 49.2194 30.3065 49.3071 30.3504C49.3134 30.3504 49.3196 30.3567 49.329 30.3598C49.4137 30.4038 49.4983 30.4477 49.5798 30.4979C49.5892 30.5042 49.6017 30.5105 49.6111 30.5168C49.6863 30.5638 49.7615 30.614 49.8305 30.6674C49.8462 30.68 49.8618 30.6925 49.8775 30.7051C49.9433 30.7553 50.0029 30.8086 50.0655 30.862C50.0875 30.8808 50.1063 30.8996 50.1282 30.9185C50.1846 30.9687 50.2348 31.0252 50.2881 31.0817C50.31 31.1068 50.3319 31.1288 50.3539 31.1539C50.404 31.2104 50.4479 31.2669 50.4949 31.3265C50.5137 31.3516 50.5356 31.3798 50.5545 31.405C50.5983 31.4677 50.6422 31.5336 50.683 31.5995C50.6986 31.6246 50.7112 31.6466 50.7268 31.6717C50.7707 31.747 50.8083 31.8224 50.8459 31.904C50.8553 31.9228 50.8647 31.9416 50.8741 31.9605C50.9117 32.0483 50.9493 32.1362 50.9807 32.2272C50.9838 32.2367 50.9901 32.2461 50.9932 32.2586C50.9932 32.2618 50.9932 32.268 50.9964 32.2712C51.0246 32.3559 51.0496 32.4438 51.0716 32.5348C51.0778 32.5568 51.0841 32.5819 51.0904 32.6039C51.106 32.6729 51.1186 32.7451 51.128 32.8173C51.1342 32.8612 51.1437 32.902 51.1468 32.946C51.1531 32.9993 51.1562 33.0527 51.1593 33.1029C51.1625 33.1657 51.1687 33.2253 51.1687 33.2881C51.1687 33.3006 51.1687 33.3132 51.1687 33.3257V52.8096H51.9773C53.8013 52.8096 55.2806 54.2879 55.2806 56.1176C55.2806 57.9474 53.8013 59.4256 51.9773 59.4256H43.7536C41.9296 59.4256 40.4504 57.9442 40.4504 56.1176C40.4504 54.291 41.9296 52.8096 43.7536 52.8096H44.5622V38.0241L44.2801 38.1841C43.9291 38.3034 43.5687 38.3599 43.2177 38.3599C41.8419 38.3599 40.5601 37.4937 40.0931 36.119C39.5039 34.3897 40.4284 32.5097 42.1553 31.9228L46.803 30.1935C46.803 30.1935 46.8187 30.1903 46.8281 30.1872C46.9064 30.1621 46.9848 30.1401 47.0663 30.1182C47.0945 30.1119 47.1196 30.1025 47.1478 30.0962C47.223 30.0805 47.2982 30.0679 47.3734 30.0554C47.4079 30.0491 47.4424 30.0428 47.48 30.0397C47.5458 30.0334 47.6147 30.0271 47.6806 30.024C47.7244 30.024 47.7683 30.0177 47.8122 30.0177C47.831 30.0177 47.8467 30.0177 47.8655 30.0177M47.8655 29.0762C47.8341 29.0762 47.8059 29.0762 47.7777 29.0793C47.7338 29.0793 47.69 29.0824 47.6429 29.0856H47.621C47.5395 29.0919 47.4549 29.0981 47.3703 29.1076C47.3264 29.1138 47.2888 29.1201 47.2512 29.1264H47.2261C47.1478 29.1421 47.0475 29.1578 46.9409 29.1829C46.9096 29.1892 46.8751 29.1986 46.8438 29.208H46.8281C46.756 29.23 46.6589 29.2551 46.5523 29.2896C46.5366 29.2959 46.5178 29.299 46.5022 29.3053C46.4928 29.3084 46.4834 29.3116 46.4708 29.3147L41.8325 31.0409C40.7669 31.4081 39.905 32.1676 39.4067 33.1814C38.9053 34.2014 38.8332 35.3532 39.1968 36.4266C39.7828 38.1496 41.3968 39.3077 43.2114 39.3077C43.3462 39.3077 43.4841 39.3015 43.6189 39.2889V51.8744C41.3404 51.9434 39.507 53.8234 39.507 56.1208C39.507 58.4182 41.4094 60.3703 43.7505 60.3703H51.9742C54.3121 60.3703 56.2176 58.4652 56.2176 56.1208C56.2176 53.7763 54.3842 51.9434 52.1058 51.8744V33.3289C52.1058 33.3038 52.1058 33.2786 52.1058 33.2535C52.1058 33.1782 52.0995 33.1123 52.0964 33.0433V33.0244C52.0901 32.9648 52.087 32.9052 52.0807 32.8455C52.0745 32.7922 52.0682 32.7482 52.0588 32.7043L52.0525 32.6729C52.04 32.585 52.0243 32.494 52.0024 32.403C51.9961 32.3748 51.9898 32.3465 51.9836 32.3214C51.9554 32.2021 51.924 32.0986 51.8927 31.9981C51.8927 31.9887 51.8864 31.9793 51.8833 31.973C51.8739 31.9479 51.8645 31.9228 51.8551 31.8977C51.8175 31.7878 51.7736 31.6811 51.7266 31.5807C51.714 31.5556 51.7046 31.5368 51.6952 31.5179C51.6357 31.3955 51.5855 31.2982 51.5354 31.2072C51.526 31.1884 51.5103 31.1633 51.4915 31.135L51.4821 31.1193C51.4226 31.0252 51.3693 30.9405 51.316 30.8651C51.3003 30.8432 51.2815 30.818 51.2596 30.7898L51.2439 30.771C51.1813 30.6862 51.1217 30.614 51.059 30.5419C51.0371 30.5168 51.012 30.4885 50.9869 30.4603C50.9055 30.3724 50.8365 30.3033 50.7707 30.2406C50.7488 30.2186 50.7174 30.1903 50.6861 30.1652C50.6077 30.0962 50.5294 30.0271 50.4479 29.9675C50.4322 29.955 50.4103 29.9393 50.3852 29.9204C50.2975 29.8545 50.2034 29.7886 50.1063 29.729L50.0749 29.7102C49.959 29.638 49.8493 29.5783 49.7427 29.525C49.7302 29.5187 49.7177 29.5124 49.7051 29.5061C49.5954 29.4528 49.4826 29.4026 49.3698 29.3586C49.3541 29.3524 49.3416 29.3492 49.329 29.3429C49.2162 29.3021 49.1034 29.2645 48.9874 29.2331C48.978 29.2331 48.9592 29.2268 48.9404 29.2205C48.8151 29.186 48.7054 29.1641 48.5957 29.1452C48.5769 29.1421 48.5487 29.1358 48.5173 29.1327C48.5173 29.1327 48.4985 29.1327 48.4954 29.1295C48.3982 29.1138 48.3011 29.1013 48.2008 29.095C48.1538 29.0919 48.113 29.0887 48.0723 29.0887H48.0441L48.0096 29.0856C47.9595 29.0824 47.9062 29.0793 47.8529 29.0793L47.8655 29.0762Z" fill="#515151"/>
<path d="M65.8264 22.9614C60.511 22.5189 59.8936 15.8652 59.8936 15.8652C59.8936 15.8652 59.2762 22.5189 53.9609 22.9614C59.2762 23.404 59.8936 30.0576 59.8936 30.0576C59.8936 30.0576 60.511 23.404 65.8264 22.9614Z" fill="#99CBFF"/>
<path d="M59.8885 15.8654C59.8885 15.8654 60.5059 22.519 65.8212 22.9616C60.5059 23.4041 59.8885 30.0578 59.8885 30.0578C59.8885 30.0578 59.2711 23.4041 53.9558 22.9616C59.2711 22.519 59.8885 15.8654 59.8885 15.8654ZM59.8885 14.9238C59.4059 14.9238 58.9985 15.2942 58.9546 15.7744C58.9546 15.7744 58.7979 17.3342 58.0457 18.8846C57.1118 20.8148 55.7109 21.8694 53.8775 22.0232C53.3917 22.064 53.0156 22.472 53.0156 22.9616C53.0156 23.4512 53.3917 23.8592 53.8775 23.9C55.7109 24.0538 57.1118 25.1083 58.0457 27.0385C58.7948 28.5889 58.9515 30.1331 58.9546 30.1488C59.0016 30.6321 59.4059 30.9993 59.8917 30.9993C60.3774 30.9993 60.7817 30.629 60.8256 30.1456C60.8256 30.1331 60.9823 28.5889 61.7313 27.0385C62.6653 25.1083 64.0662 24.0538 65.8996 23.9C66.3854 23.8592 66.7615 23.4512 66.7615 22.9616C66.7615 22.472 66.3854 22.064 65.8996 22.0232C64.0662 21.8694 62.6653 20.8148 61.7313 18.8846C60.9823 17.3342 60.8256 15.7901 60.8256 15.7744C60.7786 15.291 60.3743 14.9238 59.8885 14.9238Z" fill="#515151"/>
<path d="M19.375 74.4969C19.375 74.4969 26.5582 66.7667 33.9952 72.1838C26.6679 81.8567 19.375 74.4969 19.375 74.4969Z" fill="#99CBFF"/>
<path d="M28.3756 70.258C30.1495 70.258 32.0613 70.779 33.9918 72.185C31.0866 76.0203 28.1876 77.1784 25.7431 77.1784C22.0261 77.1784 19.3716 74.4981 19.3716 74.4981C19.3716 74.4981 23.3111 70.2611 28.3725 70.258M28.3725 69.3164C22.96 69.3164 18.8545 73.6695 18.6821 73.8547C18.3374 74.225 18.3468 74.7994 18.704 75.1603C18.8231 75.2796 21.6814 78.1199 25.7431 78.1199C29.015 78.1199 32.0425 76.3153 34.7408 72.7531C34.8944 72.5522 34.9602 72.298 34.9226 72.0469C34.885 71.7958 34.7502 71.573 34.5465 71.4223C32.6285 70.0257 30.5507 69.3164 28.3756 69.3164H28.3725Z" fill="#515151"/>
<path d="M13.168 66.6364C13.168 66.6364 21.4449 60.0988 27.97 66.5893C19.2511 75.0288 13.168 66.6364 13.168 66.6364Z" fill="#99CBFF"/>
<path d="M21.266 63.7169C23.4504 63.7169 25.8072 64.4357 27.9696 66.5887C25.0519 69.4134 22.4318 70.3518 20.2317 70.3518C15.8598 70.3518 13.1676 66.6358 13.1676 66.6358C13.1676 66.6358 16.8658 63.7169 21.2628 63.7169M21.2628 62.7754C16.59 62.7754 12.7446 65.7695 12.5847 65.8982C12.1898 66.2121 12.1083 66.7801 12.4061 67.1913C12.5283 67.3576 15.4367 71.2933 20.2317 71.2933C23.0367 71.2933 25.8604 69.9375 28.6215 67.2666C28.8033 67.0909 28.9067 66.8492 28.9099 66.595C28.9099 66.3407 28.8127 66.0991 28.6309 65.9202C26.5311 63.8331 24.0552 62.7754 21.2628 62.7754Z" fill="#515151"/>
<path d="M10.1992 58.9187C10.1992 58.9187 17.771 54.1983 22.6476 60.2682C14.5273 66.5421 10.1992 58.9187 10.1992 58.9187Z" fill="#99CBFF"/>
<path d="M16.2986 57.1701C18.4172 57.1701 20.7395 57.8919 22.6481 60.2678C20.2819 62.0975 18.2354 62.7441 16.5274 62.7441C12.3716 62.7441 10.1998 58.9182 10.1998 58.9182C10.1998 58.9182 13.0047 57.1701 16.2986 57.1701ZM16.2986 56.2285C12.7759 56.2285 9.82681 58.0426 9.70145 58.1179C9.27209 58.3847 9.13106 58.9433 9.38178 59.3827C9.48207 59.5585 11.8796 63.6856 16.5274 63.6856C18.6742 63.6856 20.9275 62.7849 23.2216 61.0116C23.4222 60.8578 23.5507 60.6287 23.582 60.3776C23.6102 60.1266 23.5382 59.8723 23.3815 59.6777C21.5418 57.3898 19.1599 56.2285 16.3017 56.2285H16.2986Z" fill="#515151"/>
<path d="M34.0095 52.8809C34.0095 52.8809 25.3376 58.8817 29.6156 67.0356C40.2305 61.1697 34.0095 52.8809 34.0095 52.8809Z" fill="#99CBFF"/>
<path d="M34.0095 52.8791C34.0095 52.8791 40.2305 61.1679 29.6156 67.0338C25.3376 58.8799 34.0095 52.8791 34.0095 52.8791ZM34.0095 51.9375C33.8246 51.9375 33.6396 51.9909 33.4767 52.1038C33.3827 52.1697 31.1356 53.739 29.4213 56.3848C27.0864 59.9847 26.867 63.8168 28.785 67.47C28.9041 67.6929 29.1047 67.8623 29.346 67.9345C29.4338 67.9596 29.5247 67.9753 29.6156 67.9753C29.7723 67.9753 29.929 67.9345 30.07 67.8592C33.7399 65.8317 35.9275 63.2801 36.57 60.2828C37.4851 56.005 34.8745 52.4648 34.7616 52.3141C34.5767 52.0693 34.2947 51.9375 34.0095 51.9375Z" fill="#515151"/>
<path d="M27.0913 48.082C27.0913 48.082 19.9081 54.3559 24.5778 61.245C33.5191 54.8958 27.0913 48.082 27.0913 48.082Z" fill="#99CBFF"/>
<path d="M27.0886 48.0802C27.0886 48.0802 33.5165 54.8939 24.5751 61.2432C19.9054 54.3541 27.0886 48.0802 27.0886 48.0802ZM27.0886 47.1387C26.8692 47.1387 26.6499 47.214 26.4712 47.3709C26.3929 47.44 24.5219 49.0908 23.24 51.6581C21.4944 55.1607 21.6856 58.657 23.7979 61.7736C23.9389 61.9839 24.1614 62.1251 24.409 62.1722C24.4654 62.1816 24.5219 62.1879 24.5751 62.1879C24.7694 62.1879 24.9575 62.1282 25.1205 62.0152C28.2357 59.8057 29.9531 57.2698 30.2289 54.4828C30.6207 50.5063 27.8909 47.5624 27.775 47.4368C27.5901 47.2422 27.3425 47.1418 27.0918 47.1418L27.0886 47.1387Z" fill="#515151"/>
<path d="M14.3224 44.1074C14.3224 44.1074 10.6838 53.9373 20.5654 56.4324C23.8593 45.6045 14.3224 44.1074 14.3224 44.1074Z" fill="#99CBFF"/>
<path d="M14.322 44.1076C14.322 44.1076 23.8588 45.6046 20.565 56.4325C10.6865 53.9374 14.322 44.1076 14.322 44.1076ZM14.322 43.166C13.9334 43.166 13.5792 43.4077 13.4413 43.7812C13.3693 43.9789 11.6737 48.6678 13.7735 52.6663C14.9895 54.9794 17.1959 56.5549 20.3331 57.349C20.4114 57.3678 20.4866 57.3772 20.565 57.3772C20.9693 57.3772 21.3422 57.1136 21.4644 56.7087C22.6084 52.9456 22.4172 49.8008 20.8878 47.3622C18.7096 43.8816 14.6385 43.2068 14.4662 43.1786C14.416 43.1723 14.369 43.166 14.3189 43.166H14.322Z" fill="#515151"/>
<path d="M38.5408 75.5755C38.4437 75.5755 38.3465 75.5441 38.2619 75.4845C24.7104 65.4758 20.6173 57.5133 20.4481 57.1807C20.3321 56.9484 20.4262 56.6659 20.6581 56.5498C20.89 56.4337 21.1721 56.5278 21.288 56.757C21.3288 56.8354 25.4719 64.87 38.8197 74.7281C39.0297 74.8819 39.0736 75.1769 38.92 75.3872C38.8292 75.5127 38.685 75.5786 38.5408 75.5786V75.5755Z" fill="#515151"/>
<path d="M75.8116 74.4969C75.8116 74.4969 68.6284 66.7667 61.1914 72.1838C68.5188 81.8567 75.8116 74.4969 75.8116 74.4969Z" fill="#99CBFF"/>
<path d="M66.8093 70.258C71.8739 70.258 75.8102 74.4981 75.8102 74.4981C75.8102 74.4981 73.1557 77.1784 69.4388 77.1784C66.9974 77.1784 64.0953 76.0203 61.19 72.185C63.1206 70.779 65.0323 70.258 66.8062 70.258M66.8062 69.3164C64.6312 69.3164 62.5533 70.0257 60.6353 71.4223C60.4316 71.5699 60.2937 71.7958 60.2592 72.0469C60.2247 72.298 60.2874 72.5522 60.441 72.7531C63.1362 76.3122 66.1637 78.1199 69.4388 78.1199C73.5005 78.1199 76.3587 75.2827 76.4778 75.1603C76.8319 74.8025 76.8413 74.225 76.4997 73.8547C76.3273 73.6695 72.2186 69.3164 66.8093 69.3164H66.8062Z" fill="#515151"/>
<path d="M82.0168 66.6364C82.0168 66.6364 73.7399 60.0988 67.2148 66.5893C75.9337 75.0288 82.0168 66.6364 82.0168 66.6364Z" fill="#99CBFF"/>
<path d="M73.9197 63.7169C78.3199 63.7169 82.0149 66.6358 82.0149 66.6358C82.0149 66.6358 79.3227 70.3518 74.9508 70.3518C72.7538 70.3518 70.1307 69.4134 67.2129 66.5887C69.3785 64.4357 71.7321 63.7169 73.9166 63.7169M73.9166 62.7754C71.1273 62.7754 68.6483 63.8331 66.5485 65.9202C66.3698 66.0991 66.2695 66.3407 66.2695 66.595C66.2695 66.8492 66.3761 67.0909 66.5579 67.2666C69.3189 69.9406 72.1427 71.2933 74.9476 71.2933C79.7427 71.2933 82.6511 67.3576 82.7733 67.1913C83.071 66.7833 82.9896 66.2121 82.5947 65.8982C82.4348 65.7695 78.5894 62.7754 73.9166 62.7754Z" fill="#515151"/>
<path d="M84.9835 58.9187C84.9835 58.9187 77.4117 54.1983 72.5352 60.2682C80.6554 66.5421 84.9835 58.9187 84.9835 58.9187Z" fill="#99CBFF"/>
<path d="M78.8844 57.1701C82.1783 57.1701 84.9832 58.9182 84.9832 58.9182C84.9832 58.9182 82.8113 62.7441 78.6556 62.7441C76.9476 62.7441 74.9011 62.0975 72.5349 60.2678C74.4435 57.8919 76.7658 57.1701 78.8844 57.1701ZM78.8844 56.2285C76.0262 56.2285 73.6412 57.3898 71.8015 59.6777C71.6417 59.8755 71.5696 60.1266 71.6009 60.3776C71.6291 60.6287 71.7608 60.8578 71.9613 61.0116C74.2554 62.7849 76.5088 63.6856 78.6556 63.6856C83.3034 63.6856 85.7009 59.5585 85.8012 59.3827C86.0519 58.9433 85.9077 58.3847 85.4815 58.1179C85.3562 58.0394 82.407 56.2285 78.8844 56.2285Z" fill="#515151"/>
<path d="M61.1787 52.8809C61.1787 52.8809 69.8505 58.8817 65.5726 67.0356C54.9577 61.1697 61.1787 52.8809 61.1787 52.8809Z" fill="#99CBFF"/>
<path d="M61.1765 52.8791C61.1765 52.8791 69.8484 58.8799 65.5704 67.0338C54.9555 61.1679 61.1765 52.8791 61.1765 52.8791ZM61.1765 51.9375C60.8913 51.9375 60.6093 52.0693 60.4244 52.3141C60.3115 52.4616 57.7009 56.005 58.616 60.2828C59.2585 63.2832 61.4429 65.8317 65.116 67.8592C65.257 67.9377 65.4137 67.9753 65.5704 67.9753C65.6613 67.9753 65.7522 67.9628 65.84 67.9345C66.0813 67.8623 66.285 67.696 66.401 67.47C68.319 63.8168 68.0965 59.9847 65.7647 56.3848C64.0504 53.739 61.8033 52.1697 61.7093 52.1038C61.5464 51.9909 61.3614 51.9375 61.1765 51.9375Z" fill="#515151"/>
<path d="M68.0953 48.082C68.0953 48.082 75.2785 54.3559 70.6088 61.245C61.6675 54.8958 68.0953 48.082 68.0953 48.082Z" fill="#99CBFF"/>
<path d="M68.1014 48.0814C68.1014 48.0814 75.2846 54.3553 70.6149 61.2444C61.6735 54.8951 68.1014 48.0814 68.1014 48.0814ZM68.1014 47.1399C67.8506 47.1399 67.6031 47.2403 67.4182 47.4349C67.3022 47.5573 64.5725 50.5043 64.9642 54.4808C65.24 57.2679 66.9575 59.8038 70.0727 62.0133C70.2325 62.1263 70.4237 62.1859 70.618 62.1859C70.6744 62.1859 70.7308 62.1796 70.7841 62.1702C71.0317 62.1263 71.2542 61.9819 71.3952 61.7716C73.5076 58.6551 73.6987 55.1588 71.9531 51.6562C70.6713 49.0889 68.8003 47.438 68.7219 47.369C68.5433 47.2152 68.3239 47.1367 68.1045 47.1367L68.1014 47.1399Z" fill="#515151"/>
<path d="M80.8645 44.1074C80.8645 44.1074 84.5031 53.9373 74.6216 56.4324C71.3277 45.6045 80.8645 44.1074 80.8645 44.1074Z" fill="#99CBFF"/>
<path d="M80.8638 44.1076C80.8638 44.1076 84.5024 53.9374 74.6208 56.4325C71.327 45.6046 80.8638 44.1076 80.8638 44.1076ZM80.8638 43.166C80.8168 43.166 80.7667 43.1692 80.7165 43.1786C80.5441 43.2068 76.473 43.8816 74.2949 47.3622C72.7686 49.8008 72.5743 52.9456 73.7182 56.7087C73.8405 57.1136 74.2134 57.3772 74.6177 57.3772C74.6929 57.3772 74.7713 57.3678 74.8496 57.349C77.9868 56.5549 80.1931 54.9825 81.4091 52.6663C83.5089 48.6678 81.8165 43.9789 81.7413 43.7812C81.6034 43.4077 81.2493 43.166 80.8607 43.166H80.8638Z" fill="#515151"/>
<path d="M56.6465 75.5728C56.5023 75.5728 56.3613 75.5069 56.2673 75.3813C56.1137 75.171 56.1576 74.876 56.3676 74.7222C69.7154 64.8642 73.8586 56.8327 73.8993 56.7511C74.0153 56.5188 74.3005 56.4247 74.5293 56.544C74.7612 56.6601 74.8552 56.9425 74.7392 57.1748C74.5731 57.5075 70.477 65.4699 56.9254 75.4786C56.8408 75.5414 56.7437 75.5696 56.6465 75.5696V75.5728Z" fill="#515151"/>
</svg>
