<svg width="151" height="40" viewBox="0 0 151 40" fill="none" xmlns="http://www.w3.org/2000/svg">
<g clip-path="url(#clip0_144_1786)">
<path d="M16.2461 21.8126L21.7458 25.9884V18.1359V12.1611V4.30859H16.2461V6.06819V13.9207V13.9601V21.8126Z" fill="#3870AB"/>
<path d="M8.16016 21.8126L13.6729 22.653V18.1359V12.1611V4.30859H8.16016V6.06819V13.9207V13.9601V21.8126Z" fill="#3870AB"/>
<path d="M5.58563 4.67576L0.0859375 0.5V8.35252V14.3273V22.1798H5.58563V20.4202V12.5677V12.5283V4.67576Z" fill="#3870AB"/>
<path d="M15.2667 22.7846L8.16016 18.3594V23.9927L11.4783 25.9887L15.2667 22.7846Z" fill="#14517E"/>
<path d="M7.17937 22.7846L0.0859375 18.3594V23.9927L3.39098 25.9887L7.17937 22.7846Z" fill="#14517E"/>
<path d="M14.6406 3.70404L21.7471 8.12929V2.49596L18.4421 0.5L14.6406 3.70404Z" fill="#14517E"/>
<path d="M6.56641 3.70404L13.6729 8.12929V2.49596L10.3548 0.5L6.56641 3.70404Z" fill="#14517E"/>
<path d="M30.945 7.48574L25.4453 5.62109V13.4736V15.7979H30.945V7.48574Z" fill="#3870AB"/>
<path d="M25.4453 11.2668V5.62034L33.5969 0.525391L37.3983 3.70317L25.4453 11.2668Z" fill="#14517E"/>
<path d="M35.5039 19.0147L41.0167 20.8662V13.0268V10.6895H35.5039V19.0147Z" fill="#3870AB"/>
<path d="M41.0169 15.2207V20.8672L32.8653 25.9752L29.0508 22.7843L41.0169 15.2207Z" fill="#14517E"/>
<path d="M18.5338 39.4997H22.3614L23.9421 38.3704V33.0916H22.4267V28.3906H18.5338H16.9531V39.5128H18.5338V39.4997ZM18.5338 30.0846H20.846V33.0916H18.5338V30.0846ZM22.3614 37.8058H18.5338V34.7987H22.3614V37.8058Z" fill="#3870AB"/>
<path d="M32.8913 30.084V28.377H25.9023V28.4951V30.084V33.0911V34.7982V37.8052V39.486V39.4992H31.3106L32.8913 38.3699V37.8052H27.483V34.7982H32.8913V33.0911H27.483V30.084H32.8913Z" fill="#3870AB"/>
<path d="M14.993 28.377H7.96484V39.4992H9.54552V34.785H13.4123V39.4992L14.9799 38.383V28.4032L14.993 28.377ZM13.4123 33.078H9.54552V30.084H13.4123V33.078Z" fill="#3870AB"/>
<path d="M1.57677 37.779V28.377H-0.00390625V37.779V39.4992H5.44354L7.02421 38.3699V37.779H1.57677Z" fill="#3870AB"/>
<path d="M36.0754 37.779H36.0885V28.377H34.5078V37.779V39.4992H39.9553L41.5359 38.3699V37.779H36.0754Z" fill="#3870AB"/>
<path d="M112.641 24.1897H110.145V18.8584H118.258V9.77148H107.48V12.0432H115.645V16.6129H107.533V26.4351H112.34C115.632 26.4351 119.381 25.923 121.38 25.4109L121.498 25.3846V23.1917L121.302 23.2311C119.303 23.6513 116.22 24.2028 112.654 24.2028L112.641 24.1897Z" fill="#3870AA"/>
<path d="M125.338 7.85352H122.777V32.1202L125.338 30.4131V19.4879H129.44V17.1636H125.338V7.85352Z" fill="#3870AA"/>
<path d="M137.332 27.9712H150.46V21.7207H134.68V23.9662H147.926V25.7914H134.784V32.1207H150.996V29.8752H137.332V27.9712Z" fill="#3870AA"/>
<path d="M131.062 9.06173V19.9476H140.703V15.7324H143.564V20.6829L146.033 19.0547V8.37891H143.564V13.4345H140.703V9.06173H138.287V12.5415H133.505V9.06173H131.076H131.062ZM138.287 14.6557V17.7809H133.505V14.6557H138.287Z" fill="#3870AA"/>
<path d="M150.459 8.11523H147.977V20.6819L150.459 19.0405V8.11523Z" fill="#3870AA"/>
<path d="M68.6461 22.5215C63.6689 22.5215 60.5859 24.3861 60.5859 27.3801C60.5859 30.374 63.6689 32.2387 68.6461 32.2387C73.6232 32.2387 76.7454 30.3871 76.7454 27.4063C76.7454 24.4255 73.6494 22.5215 68.6461 22.5215ZM68.6461 29.9669C65.3541 29.9669 63.2247 28.969 63.2247 27.4063C63.2247 26.1457 64.6487 24.7932 68.6461 24.7932C71.9903 24.7932 74.0674 25.7912 74.0674 27.4063C74.0674 28.6407 72.6435 29.9669 68.6461 29.9669Z" fill="#3870AA"/>
<path d="M91.9363 22.5742C86.9722 22.5742 83.9023 24.4257 83.9023 27.4065C83.9023 30.3874 86.9722 32.2389 91.9363 32.2389C96.9004 32.2389 100.01 30.4005 100.01 27.4328C100.01 24.4651 96.9135 22.5742 91.9363 22.5742ZM91.9102 24.7934C95.9076 24.7934 97.3315 26.2116 97.3315 27.4328C97.3315 28.654 95.9076 29.9934 91.9102 29.9934C88.2133 29.9934 86.5542 28.7065 86.5542 27.4328C86.5542 26.1591 88.2133 24.7934 91.9102 24.7934Z" fill="#3870AA"/>
<path d="M87.4444 15.5481C88.8421 17.7804 90.8147 19.5925 93.1661 20.8006L93.2837 20.8662L94.8905 19.0147L94.7076 18.9228C91.8729 17.4784 89.8872 15.5612 88.4764 12.8561C88.8291 11.4511 88.9858 10.0329 88.9597 8.52281V8.36523H86.3078V8.53594C86.5822 13.4733 84.5051 17.137 79.9329 19.737L79.75 19.842L81.5266 21.5753L81.6311 21.5097C84.2177 20.0652 86.2295 18.0036 87.4705 15.5481H87.4444Z" fill="#3870AA"/>
<path d="M76.5217 20.8668V7.76172H73.9483V11.1627H69.0625V8.85162H57.8672V20.1971H69.0625V17.8334H73.9483V22.5476L76.5217 20.8536V20.8668ZM66.6066 17.9385H60.4668V11.1102H66.6066V17.9385ZM69.0756 15.6274V13.3557H73.9874V15.6274H69.0756Z" fill="#3870AA"/>
<path d="M97.2267 22.4294L99.7871 20.7355V7.76172H97.2267V12.8698H92.4062V15.194H97.2267V22.4294Z" fill="#3870AA"/>
</g>
<defs>
<clipPath id="clip0_144_1786">
<rect width="151" height="39" fill="white" transform="translate(-0.00390625 0.5)"/>
</clipPath>
</defs>
</svg>
